<svg width="141" height="40" viewBox="0 0 141 40" fill="none" xmlns="http://www.w3.org/2000/svg">
<g clip-path="url(#clip0_21_1067)">
<path d="M17.9815 20.0964C17.9815 22.3264 16.1864 24.1323 13.9712 24.1323C11.7627 24.1323 9.96948 22.3264 9.96948 20.0964C9.96948 17.8684 11.7627 16.0615 13.9712 16.0615C16.1864 16.0615 17.9815 17.8684 17.9815 20.0964Z" fill="white"/>
<path d="M32.0186 20.0964C32.0186 22.3264 33.8117 24.1323 36.026 24.1323C38.2403 24.1323 40.0354 22.3264 40.0354 20.0964C40.0354 17.8684 38.2403 16.0615 36.026 16.0615C33.8117 16.0615 32.0186 17.8684 32.0186 20.0964Z" fill="white"/>
<path d="M45.9076 10.1459L40.7228 4.92247L43.0182 2.61173L33.3276 0L35.9276 9.7507L38.2211 7.439L43.3496 12.6076H39.1884C40.1155 13.0048 40.9873 13.5808 41.7416 14.3443C44.8993 17.5195 44.8993 22.6757 41.7416 25.8528L36.0269 31.6071L30.3141 25.8528C27.1584 22.6757 27.1584 17.5205 30.3141 14.3443C31.0666 13.5817 31.9393 13.0048 32.8655 12.6076H17.1345C18.0588 13.0048 18.9315 13.5808 19.6868 14.3443C22.8416 17.5195 22.8416 22.6757 19.6868 25.8528L13.9721 31.6071L8.25838 25.8528C5.10264 22.6757 5.10264 17.5205 8.25838 14.3443C9.01652 13.5817 9.88447 13.0048 10.8135 12.6076H6.65043L11.7827 7.439L14.0791 9.7507L16.6695 0L6.98749 2.61173L9.28292 4.92247L4.09338 10.1459C1.45135 12.8048 0 16.3377 0 20.0966C0 23.8556 1.45135 27.3895 4.09338 30.0483L13.9712 40L23.8556 30.0483C24.2662 29.6319 24.6462 29.1944 25.0024 28.7396C25.3519 29.1934 25.7347 29.6319 26.1482 30.0483L36.026 40L45.9076 30.0483C48.5477 27.3895 50 23.8556 50 20.0966C50 16.3377 48.5477 12.8048 45.9076 10.1459Z" fill="#FFD700"/>
</g>
<path d="M77.475 10.31V13.625H70.95V32H66.915V13.625H60.36V10.31H77.475ZM83.3449 16.37C84.4949 16.37 85.5349 16.555 86.4649 16.925C87.4049 17.295 88.2049 17.82 88.8649 18.5C89.5249 19.18 90.0349 20.01 90.3949 20.99C90.7549 21.97 90.9349 23.065 90.9349 24.275C90.9349 25.495 90.7549 26.595 90.3949 27.575C90.0349 28.555 89.5249 29.39 88.8649 30.08C88.2049 30.77 87.4049 31.3 86.4649 31.67C85.5349 32.04 84.4949 32.225 83.3449 32.225C82.1949 32.225 81.1499 32.04 80.2099 31.67C79.2699 31.3 78.4649 30.77 77.7949 30.08C77.1349 29.39 76.6199 28.555 76.2499 27.575C75.8899 26.595 75.7099 25.495 75.7099 24.275C75.7099 23.065 75.8899 21.97 76.2499 20.99C76.6199 20.01 77.1349 19.18 77.7949 18.5C78.4649 17.82 79.2699 17.295 80.2099 16.925C81.1499 16.555 82.1949 16.37 83.3449 16.37ZM83.3449 29.375C84.6249 29.375 85.5699 28.945 86.1799 28.085C86.7999 27.225 87.1099 25.965 87.1099 24.305C87.1099 22.645 86.7999 21.38 86.1799 20.51C85.5699 19.64 84.6249 19.205 83.3449 19.205C82.0449 19.205 81.0849 19.645 80.4649 20.525C79.8449 21.395 79.5349 22.655 79.5349 24.305C79.5349 25.955 79.8449 27.215 80.4649 28.085C81.0849 28.945 82.0449 29.375 83.3449 29.375ZM97.2157 16.61V26.39C97.2157 27.33 97.4307 28.06 97.8607 28.58C98.3007 29.09 98.9557 29.345 99.8257 29.345C100.466 29.345 101.066 29.205 101.626 28.925C102.186 28.635 102.716 28.24 103.216 27.74V16.61H106.921V32H104.656C104.176 32 103.861 31.775 103.711 31.325L103.456 30.095C103.136 30.415 102.806 30.71 102.466 30.98C102.126 31.24 101.761 31.465 101.371 31.655C100.991 31.835 100.576 31.975 100.126 32.075C99.6857 32.185 99.2107 32.24 98.7007 32.24C97.8607 32.24 97.1157 32.1 96.4657 31.82C95.8257 31.53 95.2857 31.125 94.8457 30.605C94.4057 30.085 94.0707 29.47 93.8407 28.76C93.6207 28.04 93.5107 27.25 93.5107 26.39V16.61H97.2157ZM117.236 16.37C118.206 16.37 119.096 16.525 119.906 16.835C120.726 17.145 121.431 17.6 122.021 18.2C122.611 18.79 123.071 19.52 123.401 20.39C123.731 21.25 123.896 22.235 123.896 23.345C123.896 23.625 123.881 23.86 123.851 24.05C123.831 24.23 123.786 24.375 123.716 24.485C123.656 24.585 123.571 24.66 123.461 24.71C123.351 24.75 123.211 24.77 123.041 24.77H113.531C113.641 26.35 114.066 27.51 114.806 28.25C115.546 28.99 116.526 29.36 117.746 29.36C118.346 29.36 118.861 29.29 119.291 29.15C119.731 29.01 120.111 28.855 120.431 28.685C120.761 28.515 121.046 28.36 121.286 28.22C121.536 28.08 121.776 28.01 122.006 28.01C122.156 28.01 122.286 28.04 122.396 28.1C122.506 28.16 122.601 28.245 122.681 28.355L123.761 29.705C123.351 30.185 122.891 30.59 122.381 30.92C121.871 31.24 121.336 31.5 120.776 31.7C120.226 31.89 119.661 32.025 119.081 32.105C118.511 32.185 117.956 32.225 117.416 32.225C116.346 32.225 115.351 32.05 114.431 31.7C113.511 31.34 112.711 30.815 112.031 30.125C111.351 29.425 110.816 28.565 110.426 27.545C110.036 26.515 109.841 25.325 109.841 23.975C109.841 22.925 110.011 21.94 110.351 21.02C110.691 20.09 111.176 19.285 111.806 18.605C112.446 17.915 113.221 17.37 114.131 16.97C115.051 16.57 116.086 16.37 117.236 16.37ZM117.311 19.025C116.231 19.025 115.386 19.33 114.776 19.94C114.166 20.55 113.776 21.415 113.606 22.535H120.566C120.566 22.055 120.501 21.605 120.371 21.185C120.241 20.755 120.041 20.38 119.771 20.06C119.501 19.74 119.161 19.49 118.751 19.31C118.341 19.12 117.861 19.025 117.311 19.025ZM129.639 24.065L124.584 16.61H128.154C128.424 16.61 128.624 16.65 128.754 16.73C128.884 16.8 128.999 16.92 129.099 17.09L132.324 22.235C132.374 22.065 132.434 21.895 132.504 21.725C132.584 21.555 132.679 21.385 132.789 21.215L135.384 17.165C135.504 16.975 135.629 16.835 135.759 16.745C135.889 16.655 136.049 16.61 136.239 16.61H139.644L134.574 23.9L139.854 32H136.284C136.014 32 135.794 31.93 135.624 31.79C135.464 31.65 135.329 31.49 135.219 31.31L131.949 25.955C131.859 26.315 131.734 26.615 131.574 26.855L128.694 31.31C128.584 31.48 128.449 31.64 128.289 31.79C128.129 31.93 127.929 32 127.689 32H124.374L129.639 24.065Z" fill="white"/>
<defs>
<clipPath id="clip0_21_1067">
<rect width="50" height="40" fill="white"/>
</clipPath>
</defs>
</svg>
